<?xml version="1.0" encoding="iso-8859-1"?>
<!-- Uploaded to: SVG Repo, www.svgrepo.com, Generator: SVG Repo Mixer Tools -->
<svg height="800px" width="800px" version="1.1" id="Layer_1" xmlns="http://www.w3.org/2000/svg" xmlns:xlink="http://www.w3.org/1999/xlink" 
	 viewBox="0 0 512 512" xml:space="preserve">
<g>
	<path style="fill:#FEE187;" d="M216.367,321.096c-12.051,14.727-29.566,24.602-44.678,33.331
		c-40.133-16.937-71.354-50.812-84.709-92.679c8.536-4.999,16.348-10.565,20.666-16.099c13.151-16.87,24.374-23.501,37.751-5.646
		c13.366,17.867,20.792,34.339,39.565,34.588C203.715,274.842,240.594,291.484,216.367,321.096z"/>
	<path style="fill:#FEE187;" d="M301.258,239.924c-10.283-4.944-19.998-8.243-25.361-4.818
		c-22.924,14.601-53.442-2.04-52.659-29.215c0.022-0.908,0.091-1.791,0.193-2.653c3.526-29.884-39.181-42.411-51.027-46.969
		c-18.309-7.017-30.949-31.63-40.801-53.6c26.358-22.9,60.766-36.766,98.438-36.766c21.936,0,42.762,4.704,61.548,13.151
		c-21.517,8.208-34.486,17.889-49.746,37.74c-1.758,2.245,1.19,61.321,9.353,57.172c25.168-12.799,49.475,19.805,66.514,48.034
		C324.237,232.816,312.651,245.388,301.258,239.924z"/>
</g>
<g>
	<path style="fill:#FFC61B;" d="M380.184,202.063c-7.722,0-13.985,6.261-13.985,13.985c0,75.079-61.082,136.161-136.16,136.161
		c-8.374,0-16.628-0.754-24.718-2.236c7.869-5.648,15.418-12.14,21.868-20.022c15.14-18.504,11.544-33.843,8.052-41.338
		c-9.335-20.04-35.679-27.813-50.091-28.003c-7.552-0.101-11.681-5.058-21.554-19.201c-2.191-3.141-4.458-6.388-7.005-9.791
		c-8.052-10.747-17.14-16.196-27.011-16.196c-14.187,0-24.623,10.933-32.956,21.622c-0.241,0.308-0.557,0.678-0.944,1.099
		c-1.186-7.269-1.8-14.65-1.8-22.094c0-33.17,12.084-64.939,33.64-89.604c10.196,19.467,22.546,36.237,39.863,42.875
		c1.088,0.418,2.418,0.902,3.939,1.452c18.69,6.76,39.926,16.373,38.221,30.816c-0.158,1.336-0.255,2.67-0.284,3.9
		c-0.372,12.894,4.337,25.049,13.256,34.227c9.135,9.402,21.889,14.794,34.991,14.794c8.612,0,17.068-2.34,24.565-6.787
		c1.491,0.171,5.234,1.011,13.14,4.809c3.73,1.789,7.659,2.696,11.679,2.696c9.575,0,18.492-5.261,23.27-13.729
		c4.738-8.395,4.558-18.387-0.478-26.726c-16.204-26.845-38.456-57.657-66.947-57.657c-1.531,0-3.056,0.091-4.567,0.274
		c-1.796-10.563-2.991-27.505-2.868-35.097c12.532-15.646,23-23.205,41.274-30.175c0.017-0.007,0.031-0.015,0.048-0.022
		c0.561-0.217,1.103-0.48,1.632-0.766c0.127-0.069,0.255-0.137,0.379-0.21c0.524-0.305,1.032-0.636,1.515-1.01
		c0.049-0.038,0.092-0.08,0.14-0.117c0.439-0.348,0.854-0.729,1.253-1.133c0.087-0.088,0.175-0.175,0.26-0.266
		c0.417-0.446,0.814-0.916,1.175-1.422c0.025-0.036,0.046-0.074,0.071-0.11c0.315-0.45,0.599-0.929,0.863-1.424
		c0.081-0.151,0.158-0.302,0.234-0.456c0.066-0.133,0.14-0.259,0.201-0.394c0.164-0.365,0.301-0.734,0.431-1.105
		c0.021-0.062,0.05-0.119,0.07-0.18c0.2-0.593,0.345-1.191,0.463-1.791c0.025-0.126,0.045-0.252,0.066-0.379
		c0.102-0.617,0.175-1.232,0.193-1.847c0-0.008,0.003-0.017,0.003-0.025c0-0.003,0-0.007,0-0.01
		c0.004-0.143-0.003-0.282-0.004-0.425c0-0.271-0.006-0.543-0.021-0.813c-0.01-0.159-0.025-0.316-0.039-0.474
		c-0.025-0.269-0.059-0.536-0.099-0.8c-0.021-0.134-0.039-0.27-0.064-0.403c-0.07-0.385-0.152-0.765-0.255-1.14
		c-0.003-0.011-0.006-0.022-0.008-0.035c-0.108-0.394-0.238-0.782-0.379-1.164c-0.039-0.105-0.083-0.208-0.124-0.312
		c-0.112-0.28-0.231-0.554-0.359-0.825c-0.055-0.115-0.108-0.229-0.166-0.343c-0.148-0.291-0.306-0.578-0.475-0.857
		c-0.042-0.071-0.08-0.144-0.124-0.215c-0.204-0.327-0.425-0.645-0.656-0.954c-0.091-0.123-0.189-0.241-0.284-0.359
		c-0.158-0.197-0.319-0.39-0.487-0.578c-0.112-0.126-0.224-0.25-0.34-0.372c-0.194-0.203-0.397-0.399-0.604-0.59
		c-0.091-0.084-0.176-0.173-0.27-0.255c-0.291-0.256-0.597-0.496-0.912-0.729c-0.116-0.085-0.235-0.165-0.354-0.248
		c-0.239-0.165-0.484-0.324-0.736-0.475c-0.116-0.07-0.231-0.14-0.35-0.207c-0.368-0.207-0.744-0.406-1.134-0.58
		c-21.223-9.542-43.86-14.38-67.281-14.38c-7.417,0-14.789,0.502-22.065,1.488c-2.426,0.329-4.84,0.712-7.244,1.147
		c-3.921,0.71-7.808,1.572-11.656,2.563c-1.71,0.441-3.411,0.909-5.104,1.404c-0.699,0.204-1.397,0.414-2.093,0.627
		c-4.788,1.468-9.504,3.156-14.134,5.055c-3.619,1.484-7.185,3.098-10.693,4.839c-0.824,0.408-1.643,0.824-2.458,1.247
		c-11.469,5.935-22.277,13.236-32.162,21.823c-0.004,0.003-0.007,0.007-0.011,0.01c-35.912,31.202-56.509,76.371-56.509,123.926
		c0,17.05,2.607,33.857,7.746,49.949c0.456,1.428,0.93,2.847,1.422,4.258c4.297,12.302,10.007,23.923,16.935,34.686
		c17.703,27.501,43.414,49.36,74.229,62.364c0.001,0.001,0.004,0.001,0.006,0.003c0,0,0.001,0,0.003,0.001
		c0.001,0.001,0.001,0,0.001,0c20.195,8.539,41.657,12.867,63.789,12.867c90.501,0,164.129-73.628,164.129-164.13
		C394.169,208.324,387.908,202.063,380.184,202.063z M236.162,80.031c0.228,0.01,0.457,0.015,0.687,0.027
		c1.928,0.094,3.849,0.235,5.763,0.408c0.315,0.028,0.631,0.056,0.945,0.087c1.877,0.183,3.746,0.407,5.608,0.667
		c0.323,0.045,0.646,0.094,0.971,0.141c1.877,0.277,3.745,0.587,5.605,0.943c0.092,0.017,0.183,0.038,0.276,0.055
		c-8.911,6.721-16.87,14.997-25.185,25.814c-2.573,3.285-4.795,6.122-2.629,33.591c1.361,17.25,3.661,29.305,6.838,35.827
		c4.646,9.539,12.277,10.57,15.342,10.57c2.456,0,4.927-0.597,7.152-1.728c1.779-0.905,3.479-1.345,5.199-1.345
		c7.202,0,20.048,7.136,40.744,40.453c-9.013-4.012-15.913-5.826-22.012-5.826c-4.942,0-9.347,1.212-13.081,3.597
		c-3.362,2.142-7.023,3.229-10.879,3.229c-5.59,0-11.031-2.302-14.931-6.315c-2.551-2.625-5.552-7.173-5.355-13.997
		c0.011-0.429,0.042-0.867,0.099-1.351c4.524-38.342-39.799-54.372-56.485-60.406c-1.316-0.475-2.468-0.891-3.425-1.259
		c-11.632-4.458-21.974-22.862-28.527-36.466c0.275-0.204,0.543-0.418,0.819-0.62c0.631-0.461,1.27-0.909,1.909-1.359
		c0.95-0.67,1.905-1.33,2.87-1.975c0.661-0.442,1.327-0.875,1.996-1.305c0.969-0.622,1.945-1.231,2.928-1.828
		c0.674-0.41,1.351-0.817,2.032-1.214c1.011-0.59,2.032-1.159,3.057-1.723c0.666-0.365,1.33-0.736,2.001-1.089
		c1.094-0.578,2.2-1.129,3.309-1.675c0.617-0.305,1.228-0.62,1.85-0.913c1.322-0.627,2.657-1.221,3.997-1.805
		c0.42-0.183,0.832-0.38,1.253-0.558c1.775-0.752,3.565-1.467,5.369-2.142c0.372-0.138,0.75-0.26,1.122-0.396
		c1.431-0.522,2.865-1.029,4.311-1.502c0.642-0.21,1.289-0.399,1.935-0.599c1.19-0.369,2.38-0.734,3.58-1.071
		c0.731-0.206,1.467-0.393,2.201-0.586c1.129-0.296,2.259-0.586,3.395-0.853c0.771-0.182,1.545-0.351,2.319-0.519
		c1.116-0.242,2.236-0.473,3.359-0.687c0.787-0.15,1.576-0.295,2.366-0.431c1.13-0.196,2.263-0.372,3.398-0.538
		c0.785-0.115,1.568-0.231,2.354-0.333c1.175-0.151,2.354-0.277,3.534-0.399c0.75-0.077,1.498-0.162,2.249-0.227
		c1.296-0.112,2.597-0.189,3.899-0.263c0.638-0.036,1.274-0.088,1.913-0.116c1.94-0.083,3.885-0.131,5.834-0.131
		C232.089,79.887,234.127,79.943,236.162,80.031z M118.675,254.247c6.447-8.27,9.718-10.27,10.788-10.743
		c0.659,0.393,2.275,1.587,4.738,4.875c2.264,3.028,4.4,6.083,6.462,9.038c10.589,15.171,21.54,30.856,44.116,31.156
		c8.875,0.117,22.205,5.608,25.109,11.846c1.597,3.428-1.482,8.318-4.344,11.817c-8.908,10.887-22.159,19.201-34.641,26.484
		c-0.067-0.032-0.136-0.063-0.203-0.095c-1.666-0.807-3.309-1.652-4.934-2.52c-0.316-0.169-0.633-0.338-0.948-0.51
		c-1.605-0.875-3.193-1.777-4.758-2.714c-0.249-0.15-0.495-0.303-0.743-0.454c-1.573-0.955-3.131-1.935-4.66-2.951
		c-0.07-0.046-0.141-0.091-0.211-0.137c-1.558-1.039-3.086-2.116-4.597-3.215c-0.266-0.194-0.534-0.386-0.799-0.582
		c-1.453-1.073-2.881-2.173-4.288-3.302c-0.263-0.211-0.523-0.425-0.783-0.638c-1.436-1.169-2.854-2.359-4.239-3.584
		c-0.09-0.08-0.178-0.162-0.267-0.242c-1.345-1.197-2.663-2.424-3.959-3.671c-0.199-0.192-0.4-0.379-0.597-0.572
		c-1.292-1.26-2.554-2.547-3.794-3.856c-0.245-0.259-0.488-0.519-0.731-0.779c-1.233-1.323-2.445-2.665-3.625-4.037
		c-0.165-0.192-0.324-0.386-0.488-0.578c-1.147-1.348-2.268-2.716-3.362-4.107c-0.109-0.14-0.222-0.276-0.333-0.417
		c-1.123-1.442-2.211-2.913-3.277-4.4c-0.204-0.285-0.41-0.571-0.613-0.857c-1.033-1.467-2.039-2.954-3.015-4.461
		c-0.176-0.271-0.348-0.547-0.522-0.821c-1.006-1.58-1.99-3.176-2.931-4.8c-0.013-0.022-0.025-0.046-0.038-0.069
		c-0.934-1.614-1.828-3.254-2.696-4.909c-0.145-0.278-0.295-0.555-0.439-0.833c-0.831-1.61-1.629-3.239-2.398-4.885
		c-0.148-0.319-0.294-0.638-0.441-0.958c-0.771-1.684-1.515-3.381-2.218-5.102c-0.021-0.049-0.039-0.099-0.059-0.15
		C110.399,263.006,115.26,258.621,118.675,254.247z"/>
	<path style="fill:#FFC61B;" d="M446.088,216.048C446.088,96.919,349.17,0,230.04,0c-7.722,0-13.985,6.261-13.985,13.985
		s6.262,13.985,13.985,13.985c103.707,0,188.079,84.372,188.079,188.079s-84.372,188.08-188.079,188.08
		c-7.722,0-13.985,6.261-13.985,13.985v65.918H184.24c-7.722,0-13.985,6.261-13.985,13.985c0,7.724,6.262,13.985,13.985,13.985
		h91.599c7.722,0,13.985-6.261,13.985-13.985c0-7.724-6.262-13.985-13.985-13.985h-31.815V431.65
		C356.663,424.42,446.088,330.481,446.088,216.048z"/>
</g>
</svg>